# xmcd
#
# Track frame offsets:
#	150
#	17383
#	31942
#	45429
#	80219
#	105778
#	126967
#	142689
#	160323
#	174194
#	191360
#	208774
#	228195
#	249349
#	267199
#
# Disc length: 3866 seconds
#
# Revision: 0
# Processed by: cddbd v1.4PL0 Copyright (c) Steve Scherf et al.
# Submitted via: EasyCDDAExtractor 4.5.0.2
#
DISCID=ae0f180f
DTITLE=Garland Jeffreys - Collection
DYEAR=2002
DGENRE=R and B
TTITLE0=I may not be your kind
TTITLE1=35mm Dreams
TTITLE2=Wild In The Streets 
TTITLE3=Spanish Town
TTITLE4=Ghostwriter
TTITLE5=Matador
TTITLE6=New York Skyline
TTITLE7=Modern Lovers
TTITLE8=96 Tears
TTITLE9=R.O.C.K.
TTITLE10=Hail Hail Rock 'n' Roll
TTITLE11=Don't Call Me Buckwheat
TTITLE12=The Answer
TTITLE13=Sexuality
TTITLE14=Boys and Girls
EXTD=
EXTT0=
EXTT1=
EXTT2=
EXTT3=
EXTT4=
EXTT5=
EXTT6=
EXTT7=
EXTT8=
EXTT9=
EXTT10=
EXTT11=
EXTT12=
EXTT13=
EXTT14=
PLAYORDER=
